<?xml version="1.0" standalone="no"?>
<!DOCTYPE svg PUBLIC "-//W3C//DTD SVG 20010904//EN"
 "http://www.w3.org/TR/2001/REC-SVG-20010904/DTD/svg10.dtd">
<svg version="1.0" xmlns="http://www.w3.org/2000/svg"
 width="346.000000pt" height="346.000000pt" viewBox="0 0 346.000000 346.000000"
 preserveAspectRatio="xMidYMid meet">
<metadata>
Created by potrace 1.11, written by Peter Selinger 2001-2013
</metadata>
<g transform="translate(0.000000,346.000000) scale(0.100000,-0.100000)"
fill="#000000" stroke="none">
<path d="M1578 3455 c-2 -1 -25 -5 -53 -9 -270 -33 -529 -129 -755 -281 -157
-106 -325 -263 -411 -385 -13 -19 -32 -43 -41 -54 -26 -29 -120 -191 -157
-271 -69 -147 -128 -358 -149 -535 -13 -109 -7 -349 12 -464 9 -54 18 -102 21
-106 2 -4 7 -22 10 -41 9 -54 70 -227 106 -304 38 -82 110 -209 121 -213 5 -2
8 -8 8 -13 0 -12 82 -121 155 -203 267 -305 683 -519 1095 -564 81 -9 338 -8
405 2 206 29 389 87 574 182 163 84 300 184 425 308 85 84 246 281 246 300 0
3 15 29 33 58 105 166 189 416 221 658 14 101 15 385 2 426 -3 11 -7 37 -10
59 -3 22 -14 79 -26 127 -140 585 -574 1054 -1145 1238 -180 57 -183 58 -250
66 -33 3 -64 9 -69 12 -9 5 -362 12 -368 7z"/>
</g>
</svg>
