<svg width="30" height="30" viewBox="0 0 458 452" fill="none" xmlns="http://www.w3.org/2000/svg">
<g filter="url(#filter0_d)">
<path d="M451.023 0C318.445 92.3887 -141.326 152.797 49.8912 403.312C56.5057 205.386 236.514 204.705 328.644 145.69C243.766 210.431 78.1455 211.351 71.1906 427.315C356.703 521.423 474.817 195.425 451.023 0Z" fill="#188072"/>
<path d="M86.7106 416.453C89.5459 370.167 100.262 335.532 115.466 308.7C131.875 279.742 154.026 258.964 179.027 242.268C203.45 225.957 230.174 213.784 257.091 201.523C257.996 201.111 258.902 200.698 259.807 200.286C287.103 187.846 314.953 174.998 337.741 157.616L320.553 133.059C299.045 146.836 272.022 157.429 241.79 168.997C240.647 169.435 239.5 169.874 238.349 170.314C209.615 181.301 178.513 193.194 149.84 209.338C119.83 226.235 91.7519 248.162 70.8067 279.527C55.9494 301.775 45.0158 328.271 39.2732 360.222C15.0398 316.704 14.682 282.126 27.025 253.548C43.1896 216.122 82.917 184.237 136.147 155.565C186.134 128.64 245.203 105.976 301.498 84.3776C304.643 83.1712 307.778 81.9682 310.903 80.7678C358.317 62.5562 404.035 44.7242 438.259 25.5441C443.654 116.82 419.747 230.508 364.583 313.961C334.7 359.17 296.11 394.827 248.756 413.807C204.111 431.701 150.421 435.283 86.7106 416.453Z" stroke="#188072" stroke-width="30"/>
</g>
<defs>
<filter id="filter0_d" x="0" y="0" width="458" height="452" filterUnits="userSpaceOnUse" color-interpolation-filters="sRGB">
<feFlood flood-opacity="0" result="BackgroundImageFix"/>
<feColorMatrix in="SourceAlpha" type="matrix" values="0 0 0 0 0 0 0 0 0 0 0 0 0 0 0 0 0 0 127 0"/>
<feOffset dy="4"/>
<feGaussianBlur stdDeviation="2"/>
<feColorMatrix type="matrix" values="0 0 0 0 0 0 0 0 0 0 0 0 0 0 0 0 0 0 0.25 0"/>
<feBlend mode="normal" in2="BackgroundImageFix" result="effect1_dropShadow"/>
<feBlend mode="normal" in="SourceGraphic" in2="effect1_dropShadow" result="shape"/>
</filter>
</defs>
</svg>
